<?xml version="1.0" encoding="UTF-8"?>
<!DOCTYPE svg PUBLIC "-//W3C//DTD SVG 1.1//EN" "http://www.w3.org/Graphics/SVG/1.1/DTD/svg11.dtd">
<svg xmlns="http://www.w3.org/2000/svg" version="1.1" width="500px" height="500px" style="shape-rendering:geometricPrecision; text-rendering:geometricPrecision; image-rendering:optimizeQuality; fill-rule:evenodd; clip-rule:evenodd" xmlns:xlink="http://www.w3.org/1999/xlink">
<g><path style="opacity:1" fill="#222222" d="M -0.5,-0.5 C 166.167,-0.5 332.833,-0.5 499.5,-0.5C 499.5,166.167 499.5,332.833 499.5,499.5C 332.833,499.5 166.167,499.5 -0.5,499.5C -0.5,332.833 -0.5,166.167 -0.5,-0.5 Z"/></g>
<g><path style="opacity:1" fill="#efede9" d="M 99.5,192.5 C 121.153,190.777 142.153,193.61 162.5,201C 165.834,202.331 168.834,204.165 171.5,206.5C 169.088,211.659 166.421,216.659 163.5,221.5C 143.591,202.55 119.925,194.384 92.5,197C 86.3655,198.279 80.6989,200.612 75.5,204C 64.9847,216.494 67.318,226.161 82.5,233C 98.0176,236.29 113.684,238.623 129.5,240C 145.651,242.486 158.818,249.986 169,262.5C 179.433,283.279 175.933,301.445 158.5,317C 135.047,330.452 110.381,333.119 84.5,325C 66.3505,319.359 56.0171,307.192 53.5,288.5C 55.6262,271.863 64.9596,264.363 81.5,266C 77.9421,267.892 75.4421,270.725 74,274.5C 72.4041,296.932 82.2374,312.099 103.5,320C 118.911,324.838 134.244,324.505 149.5,319C 168.36,307.555 171.526,292.722 159,274.5C 150.891,267.197 141.391,262.697 130.5,261C 114.782,258.612 99.1157,255.945 83.5,253C 60.3113,246.125 53.1446,231.625 62,209.5C 72.5781,199.479 85.0781,193.812 99.5,192.5 Z"/></g>
<g><path style="opacity:1" fill="#91908e" d="M 177.5,192.5 C 176.964,195.698 177.631,198.365 179.5,200.5C 178.791,201.404 177.791,201.737 176.5,201.5C 176.19,198.287 176.523,195.287 177.5,192.5 Z"/></g>
<g><path style="opacity:1" fill="#f2f0ec" d="M 177.5,192.5 C 214.833,192.5 252.167,192.5 289.5,192.5C 289.817,195.572 289.484,198.572 288.5,201.5C 273.816,197.15 258.816,195.484 243.5,196.5C 243.227,240.844 243.56,285.177 244.5,329.5C 236.833,329.5 229.167,329.5 221.5,329.5C 221.687,324.155 222.02,318.822 222.5,313.5C 223.499,274.337 223.832,235.004 223.5,195.5C 215.981,195.175 208.648,195.508 201.5,196.5C 194.094,197.448 186.761,198.781 179.5,200.5C 177.631,198.365 176.964,195.698 177.5,192.5 Z"/></g>
<g><path style="opacity:1" fill="#f1efeb" d="M 349.5,192.5 C 368.032,192.874 386.532,193.874 405,195.5C 413.056,195.752 420.889,194.919 428.5,193C 425.935,199.523 423.269,206.023 420.5,212.5C 418.972,213.861 417.305,215.028 415.5,216C 408.833,216.667 402.167,216.667 395.5,216C 374.87,213.172 354.203,210.672 333.5,208.5C 317.894,207.373 308.394,214.373 305,229.5C 301.625,258.063 310.791,281.563 332.5,300C 356.554,316.826 381.221,317.826 406.5,303C 414.574,296.759 420.574,288.926 424.5,279.5C 425.325,278.614 426.325,278.281 427.5,278.5C 416.057,311.585 392.724,328.585 357.5,329.5C 321.413,326.246 299.58,306.913 292,271.5C 288.529,237.936 301.696,213.436 331.5,198C 337.435,195.523 343.435,193.69 349.5,192.5 Z"/></g>
<g><path style="opacity:1" fill="#969593" d="M 201.5,196.5 C 208.648,195.508 215.981,195.175 223.5,195.5C 223.832,235.004 223.499,274.337 222.5,313.5C 222.5,274.5 222.5,235.5 222.5,196.5C 215.5,196.5 208.5,196.5 201.5,196.5 Z"/></g>
</svg>
